<svg xmlns="http://www.w3.org/2000/svg" width="24" height="24" viewBox="0 0 6.35 6.35" id="user">
  <path d="M3.176 2.117c-.874 0-1.588.714-1.588 1.588A1.59 1.59 0 0 0 3.176 5.29c.874 0 1.585-.712 1.585-1.586a1.59 1.59 0 0 0-1.585-1.588zm0 .529c.588 0 1.056.471 1.056 1.059A1.05 1.05 0 0 1 3.176 4.76a1.053 1.053 0 0 1-1.059-1.056c0-.588.471-1.06 1.059-1.06zM3.175 5.82c-.862 0-1.642.281-2.217.714C.382 6.97 0 7.565 0 8.202a.265.265 0 0 0 .265.265h5.82a.265.265 0 0 0 .265-.265c0-.638-.382-1.233-.958-1.667-.575-.433-1.355-.714-2.217-.714Zm0 .529c.746 0 1.42.248 1.899.608.38.287.582.636.667.98H.61c.085-.344.287-.693.667-.98.479-.36 1.153-.608 1.899-.608Z" color="#000" font-family="sans-serif" font-weight="400" overflow="visible" style="line-height:normal;font-variant-ligatures:normal;font-variant-position:normal;font-variant-caps:normal;font-variant-numeric:normal;font-variant-alternates:normal;font-feature-settings:normal;text-indent:0;text-align:start;text-decoration-line:none;text-decoration-style:solid;text-decoration-color:#000;text-transform:none;text-orientation:mixed;shape-padding:0;isolation:auto;mix-blend-mode:normal" transform="translate(0 -2.117)"></path>
</svg>
